<?xml version="1.0" standalone="no"?>
<!DOCTYPE svg PUBLIC "-//W3C//DTD SVG 20010904//EN"
 "http://www.w3.org/TR/2001/REC-SVG-20010904/DTD/svg10.dtd">
<svg version="1.0" xmlns="http://www.w3.org/2000/svg"
 width="500.000000pt" height="500.000000pt" viewBox="0 0 500.000000 500.000000"
 preserveAspectRatio="xMidYMid meet">

<g transform="translate(0.000000,500.000000) scale(0.100000,-0.100000)"
fill="#000000" stroke="none">
<path d="M1622 4606 c-38 -53 -41 -92 -12 -184 20 -65 24 -122 11 -156 -6 -16
-14 -10 -59 39 -29 31 -52 61 -52 66 0 5 -4 9 -10 9 -5 0 -10 -24 -10 -54 0
-44 5 -60 26 -85 14 -17 36 -31 47 -31 44 0 51 -13 37 -71 -28 -120 -80 -230
-80 -171 0 9 -18 43 -40 76 -22 32 -40 63 -40 69 0 8 -3 8 -10 1 -6 -6 -11
-35 -12 -65 -1 -57 15 -101 51 -133 43 -39 36 -48 -189 -246 -96 -84 -180
-164 -187 -179 -8 -18 -10 -72 -6 -171 3 -80 0 -311 -6 -515 -7 -203 -14 -480
-16 -615 -3 -135 -7 -345 -10 -468 -8 -284 -14 -272 123 -272 53 0 151 -5 217
-11 234 -20 454 -25 780 -18 182 5 571 13 865 19 296 6 549 15 567 21 17 5 33
16 36 23 3 7 8 95 12 195 5 100 12 184 17 187 5 3 17 -1 26 -9 31 -27 81 -47
117 -47 19 0 35 4 35 8 0 16 -66 70 -95 77 l-30 7 45 16 c25 8 61 28 81 43 26
20 48 29 75 29 31 0 44 7 81 45 54 57 56 75 7 75 -44 0 -99 -32 -118 -68 -8
-15 -23 -36 -35 -46 -26 -24 -28 -9 -5 58 22 65 8 77 -40 33 -31 -29 -36 -41
-36 -78 0 -24 -4 -49 -8 -55 -8 -12 -55 -38 -89 -48 -20 -6 -21 -5 -14 21 18
62 43 107 110 202 64 88 75 99 109 105 23 3 52 0 79 -10 46 -18 103 -13 122
10 19 23 -33 49 -85 43 -46 -5 -54 2 -28 24 8 7 22 25 30 41 8 15 21 28 29 28
27 0 76 53 78 85 2 26 -2 30 -24 33 -30 3 -79 -46 -79 -79 0 -27 -41 -89 -84
-127 -48 -42 -60 -40 -40 6 23 54 44 124 44 149 0 12 12 36 27 54 22 26 28 45
31 95 5 77 -8 83 -40 19 l-23 -45 -35 48 c-45 60 -64 61 -68 5 -3 -38 1 -46
43 -90 46 -47 47 -49 41 -97 -6 -51 -15 -70 -24 -47 -7 19 -72 91 -83 91 -5 0
-9 -19 -9 -42 0 -36 6 -46 42 -80 l42 -39 -19 -32 c-34 -59 -106 -147 -116
-142 -19 12 -9 52 16 65 28 15 65 68 65 94 0 24 -24 20 -60 -10 -17 -15 -33
-25 -35 -23 -2 2 5 29 16 59 24 67 24 86 1 130 -24 44 -37 47 -58 15 -22 -34
-20 -77 4 -118 16 -25 19 -44 15 -89 -3 -31 0 -79 7 -106 10 -46 9 -54 -11
-93 l-23 -44 -14 55 c-12 45 -15 183 -16 755 -1 385 -5 706 -9 712 -5 7 -50
44 -102 83 -92 67 -307 253 -685 589 -102 90 -236 203 -298 250 -172 130 -180
135 -194 123 -7 -5 -78 -60 -158 -122 -80 -61 -191 -152 -248 -201 -56 -50
-106 -88 -110 -85 -14 8 -87 -50 -107 -86 -17 -30 -125 -132 -209 -198 -19
-15 -19 -14 -1 13 10 16 33 68 51 115 27 72 36 88 56 90 84 11 142 62 177 157
12 32 20 60 17 62 -2 2 -52 -43 -110 -101 -59 -57 -105 -97 -102 -88 13 46 26
142 26 199 0 44 6 76 20 103 20 40 25 102 14 173 -4 20 -10 37 -14 37 -3 0
-21 -20 -38 -44z m1355 -574 c309 -265 564 -486 568 -492 4 -6 -28 -10 -92
-10 -54 0 -426 -7 -828 -14 -1441 -29 -1458 -29 -1454 -17 2 6 69 67 148 135
135 117 146 124 165 110 31 -21 88 -17 156 13 78 33 62 47 -50 41 -76 -3 -78
-3 -62 16 54 59 266 196 304 196 7 0 23 -16 35 -35 31 -48 66 -63 142 -62 l64
0 -34 29 c-48 40 -110 68 -149 68 -54 0 -22 20 67 41 43 10 106 19 141 19 60
0 62 -1 62 -25 0 -51 26 -91 72 -114 24 -11 52 -21 61 -21 14 0 13 6 -8 38
-13 20 -33 49 -44 64 -27 34 -27 34 10 42 17 3 58 25 91 48 53 37 58 43 38 46
-48 7 -109 -10 -152 -42 -39 -29 -47 -32 -83 -24 -22 5 -50 7 -62 5 -13 -2
-23 -2 -23 0 0 2 18 34 40 70 22 37 40 70 40 75 0 4 -12 2 -27 -4 -57 -25 -80
-48 -99 -100 l-19 -52 -70 -19 c-38 -10 -89 -26 -112 -37 -44 -19 -52 -16 -30
13 6 9 142 128 302 266 284 245 290 250 310 232 11 -10 273 -235 582 -499z
m626 -592 c-1 -25 -4 -323 -6 -663 -3 -452 -7 -621 -15 -629 -16 -16 -15 -73
2 -106 20 -40 31 -501 13 -526 -13 -18 -46 -19 -525 -29 -282 -6 -515 -7 -520
-3 -4 4 -7 169 -8 366 0 293 -3 362 -15 376 -12 15 -31 16 -157 12 -127 -5
-146 -8 -164 -25 -19 -20 -20 -32 -18 -387 l1 -366 -28 0 c-80 1 -1057 40
-1060 43 -3 4 37 1930 41 1934 2 3 870 20 1671 33 358 6 673 12 700 14 93 5
90 6 88 -44z m-1103 -1605 l0 -355 -124 0 -124 0 -6 83 c-3 45 -8 205 -12 355
l-6 272 136 0 136 0 0 -355z"/>
<path d="M3043 3239 c-43 -13 -47 -33 -39 -187 8 -157 16 -176 76 -180 25 -2
62 1 82 7 47 14 52 35 44 191 -7 128 -15 164 -41 174 -23 8 -84 6 -122 -5z
m107 -58 c5 -11 10 -74 10 -140 l0 -121 -55 0 -55 0 0 134 c0 145 0 144 57
145 22 1 36 -5 43 -18z"/>
<path d="M1573 3184 c-10 -25 6 -276 18 -291 8 -9 37 -13 95 -13 116 0 119 4
107 182 l-8 133 -103 3 c-87 2 -103 0 -109 -14z m177 -138 c0 -127 1 -126 -81
-126 -36 0 -37 1 -43 43 -5 35 -9 164 -7 190 1 4 30 7 66 7 l65 0 0 -114z"/>
<path d="M3059 2203 c-15 -2 -35 -13 -45 -24 -16 -18 -17 -33 -8 -185 7 -127
13 -167 24 -175 21 -14 154 -7 174 10 14 11 16 38 16 177 0 151 -2 166 -20
184 -20 20 -68 24 -141 13z m111 -192 l0 -149 -52 -4 c-29 -2 -54 -3 -56 -2
-2 1 -6 63 -9 138 -7 159 -4 166 68 166 l49 0 0 -149z"/>
<path d="M1636 2179 c-27 -4 -53 -12 -58 -17 -5 -5 -6 -75 -2 -172 9 -201 10
-204 116 -198 46 2 72 9 78 18 13 20 13 322 0 354 -11 29 -37 32 -134 15z m94
-189 l0 -150 -49 0 -48 0 -7 53 c-3 28 -6 91 -6 139 0 98 6 107 73 108 l37 0
0 -150z"/>
<path d="M1005 1135 c0 -108 1 -115 20 -115 19 0 20 7 20 115 0 108 -1 115
-20 115 -19 0 -20 -7 -20 -115z"/>
<path d="M1208 1135 l-3 -115 78 0 c71 0 77 2 77 21 0 19 -1 19 -22 5 -12 -9
-37 -16 -55 -16 l-33 0 0 110 c0 102 -1 110 -19 110 -18 0 -20 -9 -23 -115z"/>
<path d="M1825 1230 c10 -11 20 -20 22 -20 1 0 3 9 3 20 0 14 -7 20 -22 20
-20 0 -21 -1 -3 -20z"/>
<path d="M2147 1235 c46 -32 55 -143 16 -187 -18 -21 -18 -21 5 -9 29 15 62
68 62 99 0 48 -51 112 -89 112 -11 0 -9 -5 6 -15z"/>
<path d="M2375 1135 c0 -108 1 -115 20 -115 19 0 20 7 20 115 0 108 -1 115
-20 115 -19 0 -20 -7 -20 -115z"/>
<path d="M2470 1231 c15 -28 12 -57 -6 -75 -14 -15 -14 -19 7 -54 35 -59 60
-82 88 -82 21 1 23 2 10 10 -9 5 -33 34 -54 64 -35 51 -36 56 -21 71 29 29 15
85 -21 85 -10 0 -11 -5 -3 -19z"/>
<path d="M2700 1228 c0 -17 3 -19 9 -9 5 7 15 17 22 22 10 6 8 9 -8 9 -17 0
-23 -6 -23 -22z"/>
<path d="M2775 1135 l0 -115 25 0 25 0 -3 115 c-3 111 -4 115 -25 115 -21 0
-22 -3 -22 -115z"/>
<path d="M2869 1241 c7 -5 17 -15 22 -22 6 -10 9 -8 9 9 0 16 -6 22 -22 22
-17 0 -19 -3 -9 -9z"/>
<path d="M3045 1135 c0 -108 1 -115 20 -115 19 0 20 7 20 115 0 108 -1 115
-20 115 -19 0 -20 -7 -20 -115z"/>
<path d="M3248 1135 l-3 -115 78 0 c71 0 77 2 77 21 0 19 -1 19 -22 5 -12 -9
-37 -16 -55 -16 l-33 0 0 110 c0 102 -1 110 -19 110 -18 0 -20 -9 -23 -115z"/>
<path d="M3538 1135 l-3 -115 73 0 c66 0 72 2 72 21 0 19 -1 19 -16 5 -8 -9
-31 -16 -50 -16 l-35 0 3 110 c3 108 2 110 -19 110 -21 0 -22 -4 -25 -115z"/>
<path d="M3631 1247 c2 -1 12 -9 22 -16 14 -12 17 -11 17 3 0 10 -8 16 -22 16
-12 0 -19 -1 -17 -3z"/>
<path d="M1685 1217 c-54 -46 -40 -148 25 -182 38 -20 61 -19 32 1 -49 34 -67
116 -37 174 19 36 15 37 -20 7z"/>
<path d="M2016 1215 c-51 -54 -37 -148 26 -181 40 -21 55 -17 25 6 -37 29 -53
103 -34 158 17 49 15 51 -17 17z"/>
<path d="M3642 1151 c-10 -6 -10 -10 3 -21 13 -11 15 -9 15 9 0 24 0 24 -18
12z"/>
<path d="M1832 1049 c-13 -16 -19 -29 -13 -29 14 0 41 29 41 46 0 18 -1 18
-28 -17z"/>
<path d="M1768 873 c354 -2 930 -2 1280 0 350 1 61 2 -643 2 -704 0 -991 -1
-637 -2z"/>
<path d="M2040 590 l0 -100 25 0 c22 0 24 3 15 19 -5 11 -9 56 -7 100 3 72 1
81 -15 81 -16 0 -18 -10 -18 -100z"/>
<path d="M2122 671 c9 -14 9 -26 1 -43 -9 -19 -7 -28 8 -47 24 -30 24 -46 -1
-71 -26 -26 -10 -26 24 1 35 28 33 55 -6 79 -18 11 -27 20 -20 20 7 0 18 12
24 26 11 22 10 28 -7 40 -27 20 -37 17 -23 -5z"/>
<path d="M2555 590 c0 -93 1 -100 20 -100 19 0 20 7 20 100 0 93 -1 100 -20
100 -19 0 -20 -7 -20 -100z"/>
<path d="M2638 660 c2 -17 -1 -36 -6 -43 -9 -10 -6 -18 9 -31 16 -13 20 -26
17 -52 -4 -36 1 -41 20 -22 22 22 14 66 -14 81 -23 12 -24 15 -10 26 19 16 21
42 4 59 -19 19 -25 14 -20 -18z"/>
<path d="M2311 626 c-11 -13 -11 -22 -3 -41 9 -18 8 -26 -4 -36 -8 -7 -14 -22
-12 -33 2 -16 11 -21 38 -23 19 0 25 1 13 4 -24 5 -39 35 -27 54 5 9 10 8 18
-2 18 -24 68 -59 83 -59 8 0 -6 19 -32 43 -31 28 -49 53 -53 76 -7 30 -9 32
-21 17z"/>
<path d="M2360 620 c0 -11 5 -20 10 -20 6 0 10 9 10 20 0 11 -4 20 -10 20 -5
0 -10 -9 -10 -20z"/>
<path d="M2400 548 c0 -19 2 -20 10 -8 13 19 13 30 0 30 -5 0 -10 -10 -10 -22z"/>
</g>
</svg>
